<?xml version="1.0" standalone="no"?>
<!DOCTYPE svg PUBLIC "-//W3C//DTD SVG 20010904//EN"
 "http://www.w3.org/TR/2001/REC-SVG-20010904/DTD/svg10.dtd">
<svg version="1.0" xmlns="http://www.w3.org/2000/svg"
 width="700.000000pt" height="700.000000pt" viewBox="0 0 700.000000 700.000000"
 preserveAspectRatio="xMidYMid meet">
<metadata>
Created by potrace 1.14, written by Peter Selinger 2001-2017
</metadata>
<g transform="translate(0.000000,700.000000) scale(0.100000,-0.100000)"
fill="#000000" stroke="none">
<path d="M758 6982 c-45 -27 -58 -68 -58 -182 l0 -103 -140 -140 -140 -140
-112 -2 c-125 -1 -156 -12 -177 -64 -17 -39 -17 -62 -2 -99 23 -55 52 -66 179
-68 l113 -1 139 -141 140 -141 0 -101 c0 -119 14 -160 65 -184 44 -21 73 -20
112 4 47 28 54 51 56 171 l1 109 140 141 140 141 110 2 c61 1 120 7 132 14 48
26 71 97 49 149 -23 55 -55 67 -179 69 l-111 1 -100 100 c-55 55 -118 120
-141 145 l-41 44 0 107 c-1 122 -12 149 -68 173 -45 18 -74 17 -107 -4z m155
-593 l89 -91 -91 -90 c-91 -91 -91 -91 -113 -72 -42 37 -158 158 -158 165 0 8
171 179 179 179 3 0 45 -41 94 -91z"/>
<path d="M3909 6984 c-54 -35 -59 -55 -59 -261 l0 -189 -232 1 -233 0 -1 66
c0 36 -6 79 -13 95 -37 88 -164 90 -208 3 -7 -13 -13 -56 -13 -95 l0 -70 -293
-1 c-293 0 -294 0 -349 -25 -75 -35 -113 -71 -145 -137 -24 -51 -27 -67 -27
-178 -1 -116 -2 -123 -21 -124 -11 0 -110 -2 -220 -3 -180 -3 -206 -5 -260
-26 -121 -46 -213 -127 -267 -235 -55 -108 -53 -73 -52 -1500 1 -1448 -2
-1382 60 -1495 49 -90 156 -180 254 -215 65 -23 116 -27 313 -28 149 0 187 -3
188 -14 6 -76 2 -249 -6 -258 -5 -7 -227 -109 -492 -226 -266 -117 -495 -222
-509 -234 -23 -18 -47 -80 -79 -205 -3 -8 -30 -103 -61 -210 -30 -107 -65
-226 -75 -265 -23 -84 -15 -54 -89 -310 -34 -116 -63 -218 -65 -227 -2 -9 -18
-65 -35 -125 -17 -59 -41 -142 -53 -183 l-22 -75 -82 -1 c-124 -2 -164 -26
-177 -106 -6 -41 23 -94 64 -115 19 -9 109 -13 344 -13 305 0 320 1 352 21 66
40 68 144 3 190 -26 18 -45 21 -144 22 -63 1 -115 3 -115 7 0 3 15 54 33 114
l32 109 45 12 c41 11 851 302 910 327 26 10 200 74 305 110 57 20 80 21 572
22 l513 1 0 -351 0 -350 -57 -1 c-32 -1 -69 -1 -81 -2 -13 -1 -39 -16 -58 -35
-28 -28 -34 -42 -34 -75 0 -23 7 -53 16 -67 34 -51 52 -54 331 -54 241 0 260
1 291 20 79 49 73 166 -10 201 -17 7 -61 13 -98 13 l-66 0 0 348 c0 237 3 348
10 349 6 0 238 1 516 1 l505 1 636 -231 c350 -128 646 -232 657 -232 17 0 24
-10 32 -42 6 -24 20 -73 31 -109 10 -36 19 -71 19 -77 0 -6 -32 -9 -87 -8
-145 3 -188 -14 -211 -81 -13 -40 -8 -70 16 -103 36 -48 46 -50 385 -50 277 0
323 2 347 16 55 33 74 97 46 153 -26 49 -57 62 -158 64 l-92 2 -33 120 c-18
66 -40 143 -48 170 -22 73 -223 774 -252 880 -14 50 -36 128 -50 175 -13 47
-31 108 -38 135 -20 74 -31 98 -51 117 -16 14 -106 59 -229 113 -262 115 -393
173 -453 201 -41 19 -75 34 -77 34 -2 0 -36 15 -77 33 -40 19 -97 44 -125 57
l-53 24 0 136 0 136 199 1 c219 0 275 9 363 55 110 58 180 139 229 263 l23 60
1 1339 c1 736 -2 1363 -7 1393 -25 162 -149 305 -315 365 -52 19 -82 22 -273
23 -175 2 -215 5 -217 16 -1 8 -4 66 -5 129 -3 98 -7 122 -28 163 -39 77 -117
137 -200 154 -14 3 -151 6 -305 7 l-280 1 -1 185 c-1 105 -6 197 -12 212 -23
56 -112 84 -163 52z m742 -700 c9 -11 14 -50 16 -118 l1 -101 -1046 0 c-576 0
-1049 3 -1052 7 -3 3 -4 50 -3 104 1 81 5 100 19 111 14 10 219 13 1035 13
927 0 1018 -1 1030 -16z m-2494 -704 c101 -61 61 -210 -57 -210 -91 0 -146 99
-96 173 39 58 96 72 153 37z m693 7 c79 -40 86 -147 13 -201 -22 -16 -44 -19
-177 -19 -167 0 -185 5 -216 56 -35 57 -19 125 39 160 33 21 301 24 341 4z
m948 -237 c329 -60 605 -266 756 -565 104 -207 137 -450 91 -675 -3 -14 -7
-34 -9 -45 -8 -41 -49 -152 -77 -209 -149 -300 -434 -515 -757 -571 -88 -16
-252 -21 -314 -11 -136 23 -186 37 -289 81 -324 139 -563 447 -619 800 -12 73
-15 245 -6 292 3 16 7 44 10 63 8 52 61 210 92 272 122 244 347 441 604 528
153 52 363 69 518 40z m934 -2105 c70 -52 64 -151 -11 -193 -32 -17 -52 -19
-176 -17 -77 1 -144 3 -150 4 -23 4 -58 44 -70 79 -20 57 12 118 74 143 8 3
80 5 160 5 129 -1 149 -3 173 -21z m467 -3 c37 -27 52 -61 47 -105 -14 -123
-180 -138 -221 -20 -11 32 -11 43 1 72 17 41 16 39 51 61 35 21 88 17 122 -8z
m-2867 -1224 c3 -11 2 -695 -1 -736 -1 -11 -681 435 -681 447 1 3 67 35 148
70 81 36 184 82 230 103 46 21 85 38 87 38 3 0 42 17 87 39 123 56 124 57 130
39z m2644 -14 c33 -15 83 -37 111 -50 29 -14 128 -58 220 -98 93 -41 195 -86
227 -101 l59 -26 -334 -223 c-184 -122 -340 -225 -346 -230 -10 -6 -13 72 -13
373 0 213 4 381 9 381 5 0 35 -12 67 -26z m-2000 -273 c68 -41 75 -129 14
-183 -51 -47 -134 -35 -170 24 -35 58 -23 116 33 156 39 27 82 28 123 3z m458
5 c35 -15 66 -66 66 -109 0 -37 -40 -89 -80 -102 -126 -42 -211 136 -98 205
39 23 67 25 112 6z m488 -13 c83 -75 38 -203 -72 -203 -121 0 -157 160 -49
218 31 17 95 9 121 -15z m447 13 c66 -35 82 -122 33 -177 -23 -26 -38 -33 -80
-37 -47 -4 -54 -2 -81 25 -95 96 9 250 128 189z m-2510 -432 c200 -133 329
-225 320 -228 -8 -3 -32 -12 -54 -20 -22 -8 -85 -31 -140 -51 -55 -20 -111
-40 -125 -45 -14 -5 -149 -54 -300 -110 -347 -128 -334 -124 -325 -102 4 9 13
40 20 67 30 111 208 731 212 738 3 4 17 0 31 -9 15 -10 177 -118 361 -240z
m4020 -141 c62 -219 115 -406 118 -416 4 -15 1 -16 -24 -6 -15 6 -201 74 -413
150 -454 165 -497 182 -501 192 -3 7 686 475 702 476 3 1 56 -178 118 -396z"/>
<path d="M3597 5134 c-1 -1 -31 -4 -67 -7 -299 -27 -581 -248 -681 -533 -161
-460 95 -940 571 -1070 93 -25 290 -25 390 0 447 114 712 562 594 1006 -75
283 -312 512 -602 581 -40 10 -199 27 -205 23z m193 -262 c148 -51 234 -117
315 -242 207 -316 55 -743 -307 -865 -278 -92 -583 40 -708 308 -80 171 -72
368 23 537 71 125 230 243 374 276 78 18 231 11 303 -14z"/>
<path d="M3505 4645 c-295 -99 -319 -514 -37 -643 141 -64 288 -37 398 75 109
109 130 281 51 416 -25 43 -121 138 -135 135 -4 -1 -16 3 -27 9 -25 13 -120
32 -159 30 -16 -1 -57 -10 -91 -22z"/>
<path d="M6023 6405 c-48 -20 -72 -59 -69 -110 3 -50 25 -81 71 -100 38 -16
62 -14 102 10 35 21 53 52 53 95 0 83 -81 137 -157 105z"/>
<path d="M6708 2432 c-31 -18 -58 -67 -58 -104 0 -64 74 -122 138 -107 70 15
107 76 88 144 -21 72 -106 106 -168 67z"/>
<path d="M195 1160 c-11 -4 -32 -20 -47 -35 -32 -32 -38 -87 -14 -133 35 -68
135 -75 189 -14 24 26 32 90 15 121 -27 50 -95 80 -143 61z"/>
</g>
</svg>
